<svg xmlns="http://www.w3.org/2000/svg" viewBox="0 0 101.57 58.87"><defs><style>.cls-1{fill:#662d91;stroke:#fff;stroke-miterlimit:10;}.cls-2{fill:#fff;}</style></defs><g id="Layer_2" data-name="Layer 2"><g id="Layer_1-2" data-name="Layer 1"><path class="cls-1" d="M33.93,49.79A17.64,17.64,0,0,0,38.59,52a17.85,17.85,0,0,0,5.19.78,16.44,16.44,0,0,0,4.2-.52,9,9,0,0,0,3.18-1.41A6.07,6.07,0,0,0,52.83,49a12,12,0,0,0,1.11-2.91l.56.07a13.66,13.66,0,0,1-.86,4.38A11,11,0,0,1,51.34,54q-4.19,4.39-12.1,4.4a16.16,16.16,0,0,1-7.73-1.68,21.18,21.18,0,0,1-6-5.53l-.21-.25a23,23,0,0,1-6.42-1,26.38,26.38,0,0,1-6.24-2.73,24.55,24.55,0,0,1-9-9A24.22,24.22,0,0,1,.5,26,24,24,0,0,1,3,15.08a25.81,25.81,0,0,1,7.38-8.81A27.32,27.32,0,0,1,18.18,2,25.2,25.2,0,0,1,26.66.5a24.51,24.51,0,0,1,9.7,2,26.92,26.92,0,0,1,6.7,4.24,27.33,27.33,0,0,1,5.25,6,23.39,23.39,0,0,1,3.8,12.88,23.85,23.85,0,0,1-1.6,8.64,25.73,25.73,0,0,1-4.62,7.65,26.07,26.07,0,0,1-5.28,4.71A29.23,29.23,0,0,1,33.93,49.79ZM14.32,43.67a18.44,18.44,0,0,1,5.09-.74,15.22,15.22,0,0,1,6,1.23A17.26,17.26,0,0,1,28,45.54q1.29.84,4.22,3l.31.24a17.17,17.17,0,0,0,4-2.88,21.77,21.77,0,0,0,3.25-4.33,28.49,28.49,0,0,0,3.9-15.06,37.16,37.16,0,0,0-1.53-10.73,25.22,25.22,0,0,0-4.3-8.58,14.48,14.48,0,0,0-5-4.19A14.67,14.67,0,0,0,26.3,1.62a14.87,14.87,0,0,0-6.48,1.32,14.22,14.22,0,0,0-5,4.21,25.59,25.59,0,0,0-4.27,8.57A37,37,0,0,0,9,26.43a31.68,31.68,0,0,0,1.26,9.31A27.1,27.1,0,0,0,14.32,43.67Zm10.16,6.26-.25-.28a23.74,23.74,0,0,0-4.18-4.15,6.1,6.1,0,0,0-3.52-1.2,4.55,4.55,0,0,0-1.48.29,17,17,0,0,0,4.35,3.76A14.12,14.12,0,0,0,24.48,49.93Z"/><path class="cls-2" d="M54.82,19.84H68.49v.77c-2.62.14-3.94,1.16-3.94,3.05A25.61,25.61,0,0,0,66,29.49l4.26,13.09,6-15.83a8.63,8.63,0,0,0,.7-2.95q0-3-3.65-3.19v-.77H86.72v.77a5.85,5.85,0,0,0-2.43.74,2.6,2.6,0,0,0-1.12,2.31,13.08,13.08,0,0,0,.67,3.48l4.62,15.44,5.46-13.9a12.78,12.78,0,0,0,1-4.1,3.47,3.47,0,0,0-1.32-2.92,6.86,6.86,0,0,0-2.4-1.05v-.77h10.33v.77a4.16,4.16,0,0,0-2.7,1,5.94,5.94,0,0,0-1.46,1.81A30.81,30.81,0,0,0,95.77,27L95,28.83,86.67,49.72H85.44L77.76,26.23,68.49,49.72H67.3l-7-21.28-.85-2.56Q58.27,22.4,57,21.49a5.3,5.3,0,0,0-2.21-.88Z"/></g></g></svg>